<svg id="Слой_1" data-name="Слой 1" xmlns="http://www.w3.org/2000/svg" xmlns:xlink="http://www.w3.org/1999/xlink" viewBox="0 0 1733.07 488.19">
  <defs>
    <style>
      .cls-1 {
        stroke: #000;
        stroke-width: 3.38px;
        fill: url(#Безымянный_градиент_163);
      }

      .cls-1, .cls-11, .cls-12, .cls-13, .cls-14 {
        stroke-miterlimit: 10;
      }

      .cls-2 {
        fill: url(#Безымянный_градиент_92);
      }

      .cls-3 {
        fill: url(#Безымянный_градиент_146);
      }

      .cls-4 {
        fill: url(#Безымянный_градиент_146-2);
      }

      .cls-5 {
        fill: url(#Безымянный_градиент_146-3);
      }

      .cls-6 {
        fill: #e60000;
      }

      .cls-7 {
        fill: url(#Безымянный_градиент_157);
      }

      .cls-8 {
        fill: url(#Безымянный_градиент_157-2);
      }

      .cls-9 {
        fill: url(#Безымянный_градиент_157-3);
      }

      .cls-10 {
        fill: url(#Безымянный_градиент_157-4);
      }

      .cls-11 {
        fill: none;
        stroke-width: 6.52px;
        stroke: url(#Безымянный_градиент_126);
      }

      .cls-12, .cls-13, .cls-14 {
        stroke: #e60000;
      }

      .cls-12, .cls-13 {
        stroke-width: 9.78px;
      }

      .cls-12 {
        fill: url(#Безымянный_градиент_157-5);
      }

      .cls-13 {
        fill: url(#Безымянный_градиент_157-6);
      }

      .cls-14 {
        stroke-width: 6.85px;
        fill: url(#Безымянный_градиент_157-7);
      }

      .cls-15 {
        fill: url(#Безымянный_градиент_139);
      }

      .cls-16 {
        fill: url(#Безымянный_градиент_139-2);
      }

      .cls-17 {
        fill: url(#Безымянный_градиент_139-3);
      }
    </style>
    <linearGradient id="Безымянный_градиент_163" data-name="Безымянный градиент 163" x1="334.27" y1="462.03" x2="791.17" y2="462.03" gradientUnits="userSpaceOnUse">
      <stop offset="0" stop-color="#001fd7"/>
      <stop offset="1" stop-color="#00c7df"/>
    </linearGradient>
    <linearGradient id="Безымянный_градиент_92" data-name="Безымянный градиент 92" x1="1329.81" y1="626.27" x2="1331.73" y2="429" gradientTransform="matrix(1, 0, -0.21, 1, 42.1, 0)" gradientUnits="userSpaceOnUse">
      <stop offset="0" stop-color="#a9a9a9"/>
      <stop offset="0.03" stop-color="#ababab"/>
      <stop offset="0.04" stop-color="#b2b2b2"/>
      <stop offset="0.04" stop-color="#bdbdbd"/>
      <stop offset="0.05" stop-color="#cecece"/>
      <stop offset="0.05" stop-color="#e4e4e4"/>
      <stop offset="0.06" stop-color="#fff"/>
      <stop offset="0.18" stop-color="#fdfdfd"/>
      <stop offset="0.24" stop-color="#f6f6f6"/>
      <stop offset="0.29" stop-color="#e9e9e9"/>
      <stop offset="0.32" stop-color="#d7d7d7"/>
      <stop offset="0.33" stop-color="#d3d3d3"/>
      <stop offset="0.4" stop-color="#b9b9b9"/>
      <stop offset="0.5" stop-color="#888"/>
      <stop offset="0.52" stop-color="#8a8a8a"/>
      <stop offset="0.53" stop-color="#919191"/>
      <stop offset="0.53" stop-color="#9c9c9c"/>
      <stop offset="0.54" stop-color="#adadad"/>
      <stop offset="0.54" stop-color="#c3c3c3"/>
      <stop offset="0.55" stop-color="#dedede"/>
      <stop offset="0.55" stop-color="#fdfdfd"/>
      <stop offset="0.55" stop-color="#fefefe"/>
      <stop offset="0.66" stop-color="#fbfbfb"/>
      <stop offset="0.74" stop-color="#f2f2f2"/>
      <stop offset="0.82" stop-color="#e2e2e2"/>
      <stop offset="0.88" stop-color="#cbcbcb"/>
      <stop offset="0.94" stop-color="#b3b3b3"/>
    </linearGradient>
    <linearGradient id="Безымянный_градиент_146" data-name="Безымянный градиент 146" x1="1298.22" y1="722.18" x2="1298.92" y2="707.42" gradientTransform="matrix(1, 0, -0.27, 1, 189.74, 0)" gradientUnits="userSpaceOnUse">
      <stop offset="0" stop-color="#a90000"/>
      <stop offset="1" stop-color="#f80307"/>
    </linearGradient>
    <linearGradient id="Безымянный_градиент_146-2" x1="1189.8" y1="734.49" x2="1190.44" y2="720.85" gradientTransform="matrix(1, 0, -0.27, 1, 105.95, -295.06)" xlink:href="#Безымянный_градиент_146"/>
    <linearGradient id="Безымянный_градиент_146-3" x1="1331.45" y1="780.51" x2="1337.03" y2="661.95" xlink:href="#Безымянный_градиент_146"/>
    <linearGradient id="Безымянный_градиент_157" data-name="Безымянный градиент 157" x1="902.68" y1="782.61" x2="929.37" y2="665.37" gradientTransform="matrix(1, 0, -0.28, 1, 201.51, 0)" gradientUnits="userSpaceOnUse">
      <stop offset="0" stop-color="#a90000"/>
      <stop offset="1" stop-color="#f80206"/>
    </linearGradient>
    <linearGradient id="Безымянный_градиент_157-2" x1="779.92" y1="773.49" x2="804.86" y2="663.66" xlink:href="#Безымянный_градиент_157"/>
    <linearGradient id="Безымянный_градиент_157-3" x1="662.3" y1="770.71" x2="682.89" y2="668.34" xlink:href="#Безымянный_градиент_157"/>
    <linearGradient id="Безымянный_градиент_157-4" x1="548.2" y1="763.4" x2="570.41" y2="680.13" xlink:href="#Безымянный_градиент_157"/>
    <linearGradient id="Безымянный_градиент_126" data-name="Безымянный градиент 126" x1="883.17" y1="70.86" x2="1778.57" y2="966.25" gradientTransform="matrix(1, 0, -0.21, 1, 42.1, 0)" gradientUnits="userSpaceOnUse">
      <stop offset="0" stop-color="gray"/>
      <stop offset="0.49" stop-color="#ccc"/>
      <stop offset="1" stop-color="#666"/>
    </linearGradient>
    <linearGradient id="Безымянный_градиент_157-5" x1="401.76" y1="705.6" x2="409.29" y2="671.31" gradientTransform="matrix(1, 0, 0, 1, 0, 0)" xlink:href="#Безымянный_градиент_157"/>
    <linearGradient id="Безымянный_градиент_157-6" x1="422.66" y1="741.24" x2="427.62" y2="718.64" gradientTransform="matrix(1, 0, 0, 1, 0, 0)" xlink:href="#Безымянный_градиент_157"/>
    <linearGradient id="Безымянный_градиент_157-7" x1="424.04" y1="777.67" x2="427.52" y2="761.82" gradientTransform="matrix(1, 0, 0, 1, 0, 0)" xlink:href="#Безымянный_градиент_157"/>
    <linearGradient id="Безымянный_градиент_139" data-name="Безымянный градиент 139" x1="172.97" y1="356.43" x2="332.3" y2="356.43" gradientUnits="userSpaceOnUse">
      <stop offset="0" stop-color="#f92b18"/>
      <stop offset="1" stop-color="#f9931f"/>
    </linearGradient>
    <linearGradient id="Безымянный_градиент_139-2" x1="83.79" y1="466.57" x2="304.62" y2="466.57" xlink:href="#Безымянный_градиент_139"/>
    <linearGradient id="Безымянный_градиент_139-3" x1="174.99" y1="575.58" x2="332.11" y2="575.58" xlink:href="#Безымянный_градиент_139"/>
  </defs>
  <g>
    <path class="cls-1" d="M342.18,296.75l-7.91,19.51c5.8,7.6,11.06,20.7,5.37,43.7a56.24,56.24,0,0,1-4.75,12.59H471L335,627.32H481.46l136-254.77h143l30.73-75.8Z" transform="translate(-83.79 -295.06)"/>
    <g>
      <path class="cls-2" d="M585,624.6q-25.8,0-37.46-15-10.68-15.79-.45-35L623,434.29h99.6L646.69,574.63q-3.71,7.15.37,12.53,4,5.7,13,5.7h29.61q8.6,0,19.19-5.7,10.32-5.37,14-12.53l75.66-140.34h99.6L822.49,574.63q-10.83,20.18-38.54,35-27.56,15-52.75,15Z" transform="translate(-83.79 -295.06)"/>
      <path class="cls-2" d="M1037.9,574.63q3.86-7-.37-12.54-3.84-5.54-13-5.54h-52.8L934.8,624.6H835.2L938,434.29h204.8q26,0,36.89,14.81,11.63,15.12.83,35.13l-8.68,15.62q-12.32,23.42-46.66,39.36,23.65,15,8.71,42.37l-23.43,43H1011Zm43.15-90.3q4-7.44-.32-12.79t-13-5.5h-47.2l-31.94,58.77h47q8.81,0,19.39-5.67,9.75-5.5,14-12.62Z" transform="translate(-83.79 -295.06)"/>
      <path class="cls-2" d="M1250.55,434.29h204.8q26,0,36.89,14.82,11.63,15.13.82,35.16l-2.52,4.4q-12.75,23.61-46.77,38.91,23.36,15.46,8.92,42.32l-2.59,4.73q-10.85,20.18-38.55,35-27.54,15-52.74,15h-211Zm105.94,128.94q4.2-6.68-.2-12.37-4.24-5.54-13.24-5.54h-52.8l-26,47.54h53q8.6,0,19.2-5.7,10.32-5.37,14-12.53Zm37-78.86q4.3-7.12-.11-12.81-4.24-5.52-13-5.52h-47.2l-25.91,47.21h47.2q9,0,19.12-5.35t14-12.5Z" transform="translate(-83.79 -295.06)"/>
      <path class="cls-2" d="M1522.41,624.6q-26.21,0-37.46-15t-.45-35l48.76-90.36q10.77-19.86,38.18-35.16,27.91-14.82,53.51-14.82h146.21q25.2,0,36.69,14.82,11.61,15.13.82,35.16l-49,90.36q-10.8,20-38.35,35t-52.74,15ZM1709,484.41q4.29-7.16-.11-12.84-4.25-5.54-13.24-5.53h-29.6q-8.8,0-19.16,5.53-10.15,5.52-14.1,12.84l-48.74,90.24q-3.71,7.15.38,12.52,4,5.69,13,5.69h29.4q8.81,0,19.4-5.69,10.32-5.37,14-12.52Z" transform="translate(-83.79 -295.06)"/>
    </g>
    <g>
      <g>
        <path class="cls-3" d="M1308,706.88a18.06,18.06,0,0,0-7-1.15h-10.43L1281.27,724h9.39a34.3,34.3,0,0,0,8.55-1,23.21,23.21,0,0,0,7.13-3.14,13.42,13.42,0,0,0,4.58-5q1.45-2.79.64-4.79A6.05,6.05,0,0,0,1308,706.88Z" transform="translate(-83.79 -295.06)"/>
        <polygon class="cls-4" points="1109.24 441.18 1107.63 424.32 1089.25 441.18 1109.24 441.18"/>
        <path class="cls-5" d="M1704.49,664.6H1018c-2.34,0-5.77,2.83-7.52,7.06l-55.22,99.16c-2.58,6.21-1.72,12.36,1.72,12.36h651.3c17.84,0,31.08-7.39,46.42-20.81,9.77-8.54,15.79-20,26.1-38.23l24.36-45C1708.83,672.63,1708.47,664.6,1704.49,664.6Zm-602,96.52h-23.27l11.34-33-38.23,27-10.72-27.52-22.73,33.55H995.15l50.18-69.26,18.22,40,59.9-40.52Zm91,0-1.9-12.72h-29l-15,12.72h-25.69l84.06-70.39,12,70.39Zm142.14-46.82a31.8,31.8,0,0,1-10.36,12.05,52.18,52.18,0,0,1-16.9,7.92c-1,.27-1.94.52-2.92.75l11.43,26.2h-26.73L1281.76,737h-7.18l-12.4,24.21h-23.33l35.43-69.74h34.52q11.17,0,18.12,2.84t9.35,7.92Q1338.65,707.33,1335.53,714.3Zm91,46.85H1399l-18.33-30.65L1365,761.15h-24.35l35.46-69.79h24.49l-13.71,26.88,45.56-26.88h28.46l-56.51,33Zm117.09-55.9h-41.53l-6.39,12.48h38.92l-7,13.57h-38.86l-8.23,16.08h41.81l-7.11,13.87h-64.34l35.51-69.87h64.48Zm97,1.2h-26.36l-28.08,54.79h-23.53l27.94-54.79h-26.64l7.85-15.08h76.53Z" transform="translate(-83.79 -295.06)"/>
      </g>
      <path class="cls-6" d="M1705.81,672.2a13.14,13.14,0,0,1-1.3,3.31l-.1.17-.09.18-22.25,44.72c-2,3.34-3.84,6.46-5.6,9.48-5.38,9.25-9.64,16.56-15.26,22.41-14,14.56-33,23.25-50.91,23.25H961.54a14.13,14.13,0,0,1,.5-1.59l55-98.73.21-.38.16-.41a7.27,7.27,0,0,1,1.63-2.41h686.78m4.59-7.53H1018c-2.34,0-5.77,2.83-7.52,7.07l-55.22,99.15c-2.58,6.22-1.72,12.36,1.72,12.36H1610.3c19.67,0,40.8-9.41,56.33-25.56,8.26-8.59,13.6-19.56,22-33.47l22.39-45c3.68-6.51,3.32-14.54-.66-14.54Z" transform="translate(-83.79 -295.06)"/>
    </g>
    <g>
      <path class="cls-7" d="M839.84,778.13c-.48,0-1.11-.09-1.34-.49s-.26-1.62.49-2.95l56.67-101a7.2,7.2,0,0,1,5.64-3.7H985c.48,0,1.11.09,1.34.49s.26,1.66-.52,3l-58,101a7.22,7.22,0,0,1-5.61,3.64Z" transform="translate(-83.79 -295.06)"/>
      <path class="cls-6" d="M979.35,674.91l-55.78,97.14a2.82,2.82,0,0,1-1.45,1.19H845.4l54.52-97.13a2.88,2.88,0,0,1,1.46-1.2h78m5.62-9.77H901.3a12,12,0,0,0-9.9,6.19l-56.67,101c-3,5.39-.49,10.73,5.11,10.73H922.2a12,12,0,0,0,9.85-6.1l58-101c3.1-5.42.58-10.82-5.06-10.82Z" transform="translate(-83.79 -295.06)"/>
    </g>
    <g>
      <path class="cls-8" d="M719.35,778.13a1.81,1.81,0,0,1-1.58-.61c-.31-.54-.37-1.72.5-3.28L774.32,674a7.74,7.74,0,0,1,6.07-4h75.34a1.79,1.79,0,0,1,1.57.61c.31.52.38,1.68-.46,3.23L802.08,774.1a7.71,7.71,0,0,1-6.1,4Z" transform="translate(-83.79 -295.06)"/>
      <path class="cls-6" d="M850.69,674.91l-52.9,96.84a3.22,3.22,0,0,1-1.85,1.49H724.43l54.16-96.86a3.27,3.27,0,0,1,1.84-1.47h70.26m5-9.77H780.39c-4,0-8.2,2.65-10.33,6.47L714,771.85c-3.14,5.62-.49,11.17,5.34,11.17H796c4,0,8.28-2.71,10.39-6.58L861.12,676.2c3.06-5.59.39-11.06-5.39-11.06Z" transform="translate(-83.79 -295.06)"/>
    </g>
    <g>
      <path class="cls-9" d="M603.44,778.13c-.26,0-.91,0-1.1-.37a3,3,0,0,1,.43-2.55l55.09-101.67a6.77,6.77,0,0,1,5.27-3.52h69.59c.27,0,.91,0,1.11.37a3,3,0,0,1-.44,2.57L677.86,774.63a6.8,6.8,0,0,1-5.27,3.5Z" transform="translate(-83.79 -295.06)"/>
      <path class="cls-6" d="M726.75,674.91l-53.18,97.38a2.42,2.42,0,0,1-1.11,1H609.39l52.77-97.37a2.3,2.3,0,0,1,1.11-1h63.48m6-9.77H663.13a11.54,11.54,0,0,0-9.57,6.07L598.47,772.88c-2.78,5.13-.33,10.14,5,10.14h69.15a11.56,11.56,0,0,0,9.56-6L737.68,675.3c2.81-5.14.35-10.16-5-10.16Z" transform="translate(-83.79 -295.06)"/>
    </g>
    <g>
      <path class="cls-10" d="M498.71,778.13c-.27,0-.9,0-1.09-.36a3,3,0,0,1,.46-2.6L555,673.46a6.68,6.68,0,0,1,5.21-3.44h50.47c.27,0,.9,0,1.09.36a3,3,0,0,1-.42,2.54L556.18,774.63a6.74,6.74,0,0,1-5.24,3.5Z" transform="translate(-83.79 -295.06)"/>
      <path class="cls-6" d="M604.66,674.91,551.88,772.3a2.29,2.29,0,0,1-1.08.94h-46l54.46-97.4a2.37,2.37,0,0,1,1.08-.93h44.36m6-9.77H560.16a11.48,11.48,0,0,0-9.47,5.93L493.82,772.78c-2.88,5.15-.45,10.24,4.89,10.24h52.22a11.53,11.53,0,0,0,9.55-6.06L615.6,675.24c2.77-5.11.32-10.1-5-10.1Z" transform="translate(-83.79 -295.06)"/>
    </g>
    <g>
      <path class="cls-11" d="M584.73,625.88q-25.8,0-37.45-15-10.69-15.78-.46-35l75.86-140.33h99.6L646.42,575.9q-3.7,7.17.37,12.53,4,5.72,13,5.7h29.6q8.6,0,19.19-5.7,10.33-5.37,14-12.53l75.66-140.33h99.6L822.23,575.9q-10.85,20.19-38.55,35-27.55,15-52.75,15Z" transform="translate(-83.79 -295.06)"/>
      <path class="cls-11" d="M1037.63,575.9q3.87-7-.37-12.54-3.84-5.52-13-5.53h-52.8l-36.88,68h-99.6L937.68,435.57h204.8q26,0,36.9,14.8,11.63,15.13.82,35.13l-8.67,15.62q-12.33,23.43-46.67,39.36,23.66,15,8.71,42.37l-23.43,43h-99.4Zm43.15-90.29q4-7.46-.32-12.79-4.24-5.51-13-5.51h-47.2l-31.94,58.77h47q8.81,0,19.39-5.66,9.75-5.5,14-12.63Z" transform="translate(-83.79 -295.06)"/>
      <path class="cls-11" d="M1250.28,435.57h204.81q26,0,36.89,14.81,11.61,15.15.82,35.17l-2.53,4.39q-12.75,23.61-46.76,38.91,23.34,15.46,8.91,42.33l-2.59,4.72q-10.83,20.19-38.55,35-27.54,15-52.74,15h-211ZM1356.22,564.5q4.2-6.68-.2-12.37-4.24-5.53-13.24-5.53H1290l-26,47.53h53q8.6,0,19.2-5.7,10.32-5.37,14-12.53Zm37-78.85q4.3-7.14-.11-12.82-4.23-5.52-13-5.52h-47.2l-25.91,47.21h47.2q9,0,19.13-5.35t14-12.49Z" transform="translate(-83.79 -295.06)"/>
      <path class="cls-11" d="M1522.14,625.88q-26.21,0-37.46-15-11.28-14.8-.45-35L1533,485.55q10.77-19.86,38.18-35.17,27.9-14.81,53.51-14.81h146.2q25.2,0,36.69,14.81,11.63,15.15.82,35.17l-49,90.35q-10.8,20-38.35,35t-52.74,15Zm186.63-140.19q4.29-7.15-.11-12.85-4.23-5.52-13.24-5.53h-29.6q-8.8,0-19.16,5.53-10.15,5.54-14.09,12.85l-48.74,90.23q-3.7,7.16.37,12.52,4,5.7,13,5.69h29.4q8.81,0,19.4-5.69,10.32-5.36,14-12.52Z" transform="translate(-83.79 -295.06)"/>
    </g>
    <path class="cls-12" d="M529.65,672.55a.74.74,0,0,0-.72-1.1L283.63,696.6a.8.8,0,0,0,.09,1.59l230.43.49a1.27,1.27,0,0,0,1.11-.65Z" transform="translate(-83.79 -295.06)"/>
    <path class="cls-13" d="M504.25,718.47a.2.2,0,0,0-.2-.29l-156.59,18a.4.4,0,0,0,0,.8L487.88,743a4,4,0,0,0,3.59-2Z" transform="translate(-83.79 -295.06)"/>
    <path class="cls-14" d="M481.25,761.71a.15.15,0,0,0-.14-.21L371.3,774.1a.28.28,0,0,0,0,.56l98.45,4.26a2.78,2.78,0,0,0,2.52-1.4Z" transform="translate(-83.79 -295.06)"/>
    <g>
      <path class="cls-15" d="M319.75,317c-6.66-6.08-21.42-16.5-54.72,7s-57.61,11.58-57.61,11.58c9.55,11.3,35,20.94,35,20.94C217.26,357.68,173,370.82,173,370.82l39.37,9.84c22.29-11.87,37.35-9.55,37.35-9.55,32.43.28,46.9,32.42,46.9,32.42s26.06-9,33.3-38.22S326.41,323,319.75,317Zm-22.58,49.51c-9.55,1.45-27.79,3.19-40.24-4.92,0,0,12.45-7.24,21.42-4.34,0,0-7.53-2.61-10.71-8.4,0,0,11.87,4.63,19.69-2.89s19.4-7.24,20.26,0S306.73,365,297.17,366.47Z" transform="translate(-83.79 -295.06)"/>
      <path class="cls-16" d="M303.33,460.51l-7.2-15.05a82.32,82.32,0,0,1-7-22.84c-2.37-15.08-13.68-42.1-65.47-30.38,0,0,16.79,10.42,18.24,17.66,0,0-39.37-11.29-84.54,19.69,0,0,29.53,1.16,35,8.68,0,0-71.8,11.58-108.57,27.51,0,0,58.49,22,109.44,28.66,0,0-9,9.85-34.16,6.37,0,0,28.08,28.08,82.8,22.29,0,0-3.18,12.45-18.24,16.51,0,0,35,15.92,56.17-14.48,0,0,6.37-10.13,7.53-13.9.9-2.92,11.55-28.67,16.29-40.06A13.07,13.07,0,0,0,303.33,460.51Zm-14.09,8.25c-22.74,47.1-66.77,12.94-66.77,12.94,11,.87,16.43-3.18,16.43-3.18-26.7-2-52.18-13.9-52.18-13.9,9.41-5.93,53.56-12.88,53.56-12.88-3.76-3.77-16.94-4.2-16.94-4.2,38.61-28.43,59.4,1.1,65.68,12.77A9.33,9.33,0,0,1,289.24,468.76Z" transform="translate(-83.79 -295.06)"/>
      <path class="cls-17" d="M296.4,528.41s-21.23,51.73-83.19,23.07L175,560.13a533.48,533.48,0,0,0,67.17,14.94s-23.45,10.28-34.45,20.41c0,0,35.51-8.1,53.37,9.56,0,0,14.49,13.74,31.14,17.13a29.42,29.42,0,0,0,30.28-13C332.59,593.85,346.05,559.76,296.4,528.41Zm12.66,51.07a8.64,8.64,0,0,1-4.72,7.16,10,10,0,0,1-8.54,0,55.26,55.26,0,0,1-9.41-6c-2-1.52-5.23-2.23-7.74-2.41a15.68,15.68,0,0,0-6.76.93s4.82-6,11-6c0,0-5.6-4.63-21.81-5.4,0,0,29.26-12.2,43.09-.28A13.76,13.76,0,0,1,309.06,579.48Z" transform="translate(-83.79 -295.06)"/>
    </g>
  </g>
</svg>
