<svg width="173" height="56" viewBox="0 0 173 56" fill="none" xmlns="http://www.w3.org/2000/svg">
<path d="M89.9959 31.1751L82.0545 9.31028C81.7107 8.41645 81.2638 8.17578 80.2667 8.17578H76.3476C75.3506 8.17578 74.9037 8.38206 74.5599 9.37904L66.6528 31.1751C66.309 32.1034 66.5152 32.5847 67.5809 32.5847H71.1908C72.9096 32.5847 73.3566 32.2065 73.7004 31.1408L74.4911 28.6655H81.9169L82.7077 31.1408C82.9827 32.2065 83.4984 32.5847 85.286 32.5847H88.999C90.0304 32.5847 90.3397 32.1034 89.9959 31.1751ZM79.0978 19.2458L80.37 23.268H76.0725L77.3445 19.2113C78.0321 16.9079 77.9978 14.4327 77.9978 14.4327H78.3416C78.3416 14.4327 78.4102 16.9079 79.0978 19.2458ZM97.2319 8.17578H93.3471C92.2469 8.17578 91.8688 8.55395 91.8688 9.61969V31.1408C91.8688 32.2065 92.2469 32.5847 93.3471 32.5847H106.961C108.027 32.5847 108.405 32.2065 108.405 31.1408V28.0124C108.405 26.9122 108.027 26.5684 106.961 26.5684H98.6758V9.61969C98.6758 8.55395 98.332 8.17578 97.2319 8.17578ZM115.865 8.17578H111.98C110.88 8.17578 110.502 8.55395 110.502 9.61969V31.1408C110.502 32.2065 110.88 32.5847 111.98 32.5847H125.594C126.66 32.5847 127.038 32.2065 127.038 31.1408V28.0124C127.038 26.9122 126.66 26.5684 125.594 26.5684H117.309V9.61969C117.309 8.55395 116.965 8.17578 115.865 8.17578Z" fill="white"/>
<path d="M147.973 22.443H146.219V9.61969C146.219 8.55395 145.841 8.17578 144.775 8.17578H141.372C140.237 8.17578 139.825 8.41644 139.137 9.20715L128.686 21.6866C127.998 22.4773 127.93 22.8899 127.93 24.0244V26.2933C127.93 27.3591 128.308 27.7374 129.374 27.7374H139.79V31.1408C139.79 32.2065 140.134 32.5847 141.234 32.5847H144.775C145.841 32.5847 146.219 32.2065 146.219 31.1408V27.7374H147.973C149.039 27.7374 149.417 27.3591 149.417 26.2933V23.8869C149.417 22.8211 149.039 22.443 147.973 22.443ZM139.79 16.6329V22.443H134.977L139.79 16.6329ZM158.362 23.9213V9.61969C158.362 8.55395 157.984 8.17578 156.885 8.17578H152.999C151.9 8.17578 151.556 8.55395 151.556 9.61969V23.6118C151.556 29.3874 155.131 33.1004 161.903 33.1004C168.711 33.1004 172.287 29.3874 172.287 23.6118V9.61969C172.287 8.55395 171.907 8.17578 170.808 8.17578H166.922C165.823 8.17578 165.479 8.55395 165.479 9.61969V23.9213C165.479 25.9495 164.275 27.0841 161.903 27.0841C159.532 27.0841 158.362 25.9495 158.362 23.9213Z" fill="#FF9600"/>
<path d="M73.739 43.5488H75.3125V51.1741H73.5576V47.3614L71.8025 51.1741H70.7132L68.9582 47.3614V51.1741H67.2031V43.5488H68.7766L71.2578 48.9349L73.739 43.5488ZM83.3618 48.2087L82.5146 45.667L81.6674 48.2087H83.3618ZM81.1831 49.7217L80.699 51.1741H78.8835L81.6069 43.5488H83.4224L86.1456 51.1741H84.3301L83.846 49.7217H81.1831ZM92.8007 43.5488C93.196 43.5488 93.5551 43.6134 93.8779 43.7424C94.2088 43.8716 94.4912 44.0451 94.7251 44.2629C94.9591 44.4807 95.1407 44.739 95.2697 45.0376C95.3989 45.3281 95.4635 45.6387 95.4635 45.9695C95.4635 46.3972 95.3868 46.7563 95.2335 47.0467C95.0883 47.3372 94.9229 47.5753 94.7372 47.7608C94.5597 47.9383 94.3943 48.0675 94.2409 48.1482C94.0877 48.2289 94.0111 48.2691 94.0111 48.2691L95.7055 51.1741H93.769L92.3771 48.6323H91.4693V51.1741H89.7143V43.5488H92.8007ZM92.8007 46.9378C93.1073 46.9378 93.3454 46.8571 93.5148 46.6958C93.6842 46.5343 93.769 46.3326 93.769 46.0906C93.769 45.8484 93.6842 45.6467 93.5148 45.4854C93.3454 45.324 93.1073 45.2434 92.8007 45.2434H91.4693V46.9378H92.8007ZM103.758 51.1741L101.277 47.785V51.1741H99.5218V43.5488H101.277V46.8167L103.577 43.5488H105.574L102.887 47.3008L105.755 51.1741H103.758ZM109.27 43.5488H114.717V45.2434H111.025V46.4536H114.414V48.1482H111.025V49.4795H114.838V51.1741H109.27V43.5488ZM122.277 51.1741H120.521V45.2434H118.343V43.5488H124.455V45.2434H122.277V51.1741ZM131.177 43.5488C131.573 43.5488 131.936 43.6175 132.267 43.7546C132.597 43.8836 132.884 44.0693 133.126 44.3113C133.368 44.5453 133.558 44.8196 133.695 45.1343C133.832 45.449 133.901 45.788 133.901 46.1511C133.901 46.5142 133.832 46.8531 133.695 47.1677C133.558 47.4824 133.368 47.7608 133.126 48.0029C132.884 48.237 132.597 48.4225 132.267 48.5596C131.936 48.6888 131.573 48.7534 131.177 48.7534H129.967V51.1741H128.212V43.5488H131.177ZM131.177 47.0588C131.452 47.0588 131.682 46.9701 131.867 46.7925C132.053 46.607 132.146 46.3931 132.146 46.1511C132.146 45.909 132.053 45.6993 131.867 45.5217C131.682 45.3361 131.452 45.2434 131.177 45.2434H129.967V47.0588H131.177ZM137.89 43.5488H139.645V49.4795H143.094V51.1741H137.89V43.5488ZM150.538 48.2087L149.691 45.667L148.844 48.2087H150.538ZM148.359 49.7217L147.875 51.1741H146.059L148.783 43.5488H150.598L153.322 51.1741H151.506L151.022 49.7217H148.359ZM160.043 49.5401C160.527 49.5401 160.906 49.4271 161.181 49.2012C161.464 48.9672 161.649 48.6968 161.737 48.3902L163.553 48.5113C163.464 48.8743 163.319 49.2213 163.117 49.5522C162.915 49.883 162.666 50.1735 162.367 50.4236C162.067 50.6656 161.721 50.8634 161.326 51.0167C160.938 51.1619 160.511 51.2346 160.043 51.2346C159.526 51.2346 159.038 51.1377 158.579 50.9441C158.127 50.7424 157.732 50.4679 157.393 50.1211C157.054 49.766 156.783 49.3544 156.582 48.8865C156.388 48.4184 156.291 47.9101 156.291 47.3614C156.291 46.8208 156.388 46.3165 156.582 45.8484C156.783 45.3724 157.054 44.961 157.393 44.614C157.732 44.2589 158.127 43.9846 158.579 43.791C159.038 43.5892 159.526 43.4883 160.043 43.4883C160.495 43.4883 160.91 43.5649 161.29 43.7183C161.676 43.8635 162.015 44.0612 162.306 44.3113C162.605 44.5534 162.855 44.8399 163.057 45.1707C163.258 45.5016 163.404 45.8484 163.493 46.2116L161.676 46.3326C161.629 46.1793 161.559 46.0341 161.471 45.8969C161.382 45.7597 161.269 45.6387 161.132 45.5337C160.994 45.4289 160.834 45.3442 160.648 45.2796C160.47 45.2151 160.269 45.1828 160.043 45.1828C159.768 45.1828 159.51 45.2393 159.268 45.3523C159.026 45.4571 158.812 45.6064 158.627 45.8001C158.448 45.9937 158.308 46.2237 158.204 46.49C158.098 46.7563 158.046 47.0467 158.046 47.3614C158.046 47.6761 158.098 47.9666 158.204 48.2329C158.308 48.4991 158.448 48.7291 158.627 48.9228C158.812 49.1165 159.026 49.2697 159.268 49.3826C159.51 49.4876 159.768 49.5401 160.043 49.5401ZM167.43 43.5488H172.877V45.2434H169.185V46.4536H172.574V48.1482H169.185V49.4795H172.999V51.1741H167.43V43.5488Z" fill="white"/>
<path fill-rule="evenodd" clip-rule="evenodd" d="M55.9409 27.9705C55.9409 33.8876 54.1036 39.3756 50.9682 43.895L49.0202 39.8719C48.8379 39.4952 48.4563 39.2561 48.0379 39.2561H21.9081C21.0999 39.2561 20.572 38.4081 20.929 37.6828L32.7006 13.7643C33.0576 13.039 32.5297 12.191 31.7213 12.191H23.1983C22.7783 12.191 22.3956 12.432 22.2141 12.8108L6.41236 45.7929C2.40706 40.9534 0 34.7431 0 27.9705C0 12.5228 12.5228 0 27.9705 0C43.4181 0 55.9409 12.5228 55.9409 27.9705ZM39.3737 47.8779L41.2853 52.5745C37.3264 54.7216 32.7907 55.941 27.9705 55.941C22.9595 55.941 18.2563 54.6232 14.1885 52.3154C15.0954 50.5487 16.1502 48.6571 16.663 47.7479C16.8552 47.4071 17.2162 47.198 17.6075 47.198H38.3628C38.8067 47.198 39.2064 47.4669 39.3737 47.8779ZM37.9599 21.2636L33.2912 30.5648C32.9268 31.2907 33.4546 32.1459 34.2666 32.1459H43.8662C44.6889 32.1459 45.2158 31.2701 44.8304 30.5433L39.8997 21.242C39.4843 20.4586 38.3578 20.4711 37.9599 21.2636Z" fill="#FF9600"/>
</svg>
